{"asset":{"generator":"FBX2glTF v0.9.7","version":"2.0"},"scene":0,"buffers":[{"byteLength":464992,"uri":"data:application/octet-stream;base64,"}],"bufferViews":[{"buffer":0,"byteLength":95712,"byteOffset":0,"target":34963},{"buffer":0,"byteLength":138480,"byteOffset":95712,"target":34962},{"buffer":0,"byteLength":138480,"byteOffset":234192,"target":34962},{"buffer":0,"byteLength":92320,"byteOffset":372672,"target":34962}],"scenes":[{"name":"Root Scene","nodes":[0]}],"accessors":[{"componentType":5123,"type":"SCALAR","count":47856,"bufferView":0,"byteOffset":0},{"componentType":5126,"type":"VEC3","count":11540,"bufferView":1,"byteOffset":0,"min":[-0.00382458209060133,-0.00577931106090546,-0.000211106351343915],"max":[0.00382458209060133,0.00427128048613667,0.0479642562568188]},{"componentType":5126,"type":"VEC3","count":11540,"bufferView":2,"byteOffset":0},{"componentType":5126,"type":"VEC2","count":11540,"bufferView":3,"byteOffset":0}],"images":[{"name":"diffuse_Ladder_low_DefaultMaterial_BaseColor.png","uri":"diffuse_Ladder_low_DefaultMaterial_BaseColor.png"}],"samplers":[{}],"textures":[{"name":"Map #9","sampler":0,"source":0}],"materials":[{"name":"Material #33","alphaMode":"OPAQUE","extras":{"fromFBX":{"shadingModel":"Metallic/Roughness","isTruePBR":true}},"pbrMetallicRoughness":{"baseColorTexture":{"index":0,"texCoord":0},"baseColorFactor":[0.5,0.5,0.5,1],"metallicFactor":0,"roughnessFactor":0}}],"meshes":[{"name":"Ladder Cage - Safety Step ","primitives":[{"material":0,"mode":4,"attributes":{"NORMAL":2,"POSITION":1,"TEXCOORD_0":3},"indices":0}]}],"nodes":[{"name":"RootNode","translation":[0,0,0],"rotation":[0,0,0,1],"scale":[1,1,1],"children":[1]},{"name":"Ladder Cage - Safety Step ","translation":[0,0,0],"rotation":[-0.70710676908493,0,0,0.70710676908493],"scale":[100,100,100],"mesh":0}]}